<?xml version="1.0" encoding="UTF-8"?><!DOCTYPE svg PUBLIC "-//W3C//DTD SVG 1.1//EN" "http://www.w3.org/Graphics/SVG/1.1/DTD/svg11.dtd"><svg xmlns="http://www.w3.org/2000/svg"><symbol id="ico-facebook" viewBox="0 0 430.113 430.114">
    <path d="M158.081 83.3v59.218h-43.385v72.412h43.385v215.183h89.122V214.936h59.805s5.601-34.721 8.316-72.685H247.54V92.74c0-7.4 9.717-17.354 19.321-17.354h48.557V.001h-66.021C155.878-.004 158.081 72.48 158.081 83.3z"/>
</symbol><symbol id="ico-left-arrow" viewBox="0 0 306 306">
    <path d="M247.35 270.3L130.05 153l117.3-117.3L211.65 0l-153 153 153 153z"/>
</symbol><symbol id="ico-linkedin" viewBox="0 0 310 310">
    <path d="M72.16 99.73H9.927a5 5 0 0 0-5 5v199.928a5 5 0 0 0 5 5H72.16a5 5 0 0 0 5-5V104.73a5 5 0 0 0-5-5z"/>
    <path d="M41.066.341C18.422.341 0 18.743 0 41.362 0 63.991 18.422 82.4 41.066 82.4c22.626 0 41.033-18.41 41.033-41.038C82.1 18.743 63.692.341 41.066.341z"/>
    <path d="M230.454 94.761c-24.995 0-43.472 10.745-54.679 22.954V104.73a5 5 0 0 0-5-5h-59.599a5 5 0 0 0-5 5v199.928a5 5 0 0 0 5 5h62.097a5 5 0 0 0 5-5V205.74c0-33.333 9.054-46.319 32.29-46.319 25.306 0 27.317 20.818 27.317 48.034v97.204a5 5 0 0 0 5 5H305a5 5 0 0 0 5-5V194.995c0-49.565-9.451-100.234-79.546-100.234z"/>
</symbol><symbol id="ico-mail" viewBox="0 0 511.626 511.626">
    <path d="M49.106 178.729c6.472 4.567 25.981 18.131 58.528 40.685 32.548 22.554 57.482 39.92 74.803 52.099 1.903 1.335 5.946 4.237 12.131 8.71 6.186 4.476 11.326 8.093 15.416 10.852 4.093 2.758 9.041 5.852 14.849 9.277 5.806 3.422 11.279 5.996 16.418 7.7 5.14 1.718 9.898 2.569 14.275 2.569h.575c4.377 0 9.137-.852 14.277-2.569 5.137-1.704 10.615-4.281 16.416-7.7 5.804-3.429 10.752-6.52 14.845-9.277 4.093-2.759 9.229-6.376 15.417-10.852 6.184-4.477 10.232-7.375 12.135-8.71 17.508-12.179 62.051-43.11 133.615-92.79 13.894-9.703 25.502-21.411 34.827-35.116 9.332-13.699 13.993-28.07 13.993-43.105 0-12.564-4.523-23.319-13.565-32.264-9.041-8.947-19.749-13.418-32.117-13.418H45.679c-14.655 0-25.933 4.948-33.832 14.844C3.949 79.562 0 91.934 0 106.779c0 11.991 5.236 24.985 15.703 38.974 10.466 13.99 21.604 24.983 33.403 32.976z"/>
    <path d="M483.072 209.275c-62.424 42.251-109.824 75.087-142.177 98.501-10.849 7.991-19.65 14.229-26.409 18.699-6.759 4.473-15.748 9.041-26.98 13.702-11.228 4.668-21.692 6.995-31.401 6.995h-.578c-9.707 0-20.177-2.327-31.405-6.995-11.228-4.661-20.223-9.229-26.98-13.702-6.755-4.47-15.559-10.708-26.407-18.699-25.697-18.842-72.995-51.68-141.896-98.501C17.987 202.047 8.375 193.762 0 184.437v226.685c0 12.57 4.471 23.319 13.418 32.265 8.945 8.949 19.701 13.422 32.264 13.422h420.266c12.56 0 23.315-4.473 32.261-13.422 8.949-8.949 13.418-19.694 13.418-32.265V184.437c-8.186 9.132-17.7 17.417-28.555 24.838z"/>
</symbol><symbol id="ico-right-arrow" viewBox="0 0 306 306">
    <path d="M94.35 0l-35.7 35.7L175.95 153 58.65 270.3l35.7 35.7 153-153z"/>
</symbol><symbol id="ico-skype-logo" viewBox="0 0 430.123 430.123">
    <path d="M412.164 246.198a199.284 199.284 0 0 0 2.45-31.148c0-110.215-89.342-199.555-199.56-199.555-10.576 0-20.995.871-31.141 2.458C165.534 6.581 143.842 0 120.595 0 53.996 0 .005 53.984.005 120.59c0 23.242 6.585 44.916 17.952 63.332-1.573 10.172-2.439 20.528-2.439 31.132 0 110.223 89.34 199.536 199.532 199.536 10.585 0 21.007-.816 31.152-2.417 18.398 11.35 40.072 17.949 63.314 17.949 66.617 0 120.602-53.998 120.602-120.602.005-23.251-6.576-44.92-17.954-63.322zM309.801 305.81c-8.442 12.153-20.843 21.65-37.047 28.479-16.237 6.847-35.428 10.254-57.59 10.254-26.562 0-48.554-4.648-65.913-14.034-12.305-6.721-22.313-15.737-30.007-26.98-7.71-11.252-11.619-22.271-11.619-33.015 0-6.338 2.417-11.85 7.122-16.344 4.754-4.527 10.877-6.796 18.104-6.796 5.92 0 11.005 1.783 15.145 5.316 4.109 3.532 7.556 8.667 10.375 15.443 3.379 7.85 7.049 14.412 10.954 19.648 3.881 5.171 9.343 9.488 16.417 12.867 6.996 3.388 16.307 5.082 27.958 5.082 15.945 0 28.831-3.449 38.693-10.253 9.912-6.866 14.673-15.22 14.673-25.314 0-8.051-2.567-14.445-7.831-19.43-5.312-5.05-12.172-8.896-20.685-11.579-8.546-2.711-20.02-5.586-34.399-8.615-19.308-4.214-35.456-9.119-48.533-14.752-13.094-5.654-23.522-13.383-31.251-23.146-7.745-9.859-11.607-22.113-11.607-36.627 0-13.84 4.077-26.217 12.239-36.989 8.158-10.802 19.961-19.07 35.351-24.829 15.336-5.757 33.391-8.637 54.075-8.637 16.541 0 30.849 1.914 42.96 5.722 12.078 3.836 22.146 8.898 30.196 15.25 7.999 6.338 13.885 13.023 17.613 20.038 3.725 7.036 5.601 13.908 5.601 20.614 0 6.235-2.417 11.89-7.127 16.846-4.709 4.963-10.733 7.493-17.768 7.47-6.342 0-11.317-1.463-14.767-4.56-3.36-2.996-6.889-7.766-10.706-14.414-4.825-9.276-10.604-16.503-17.324-21.672-6.543-5.073-17.338-7.714-32.359-7.682-13.898 0-25.018 2.84-33.411 8.394-8.445 5.643-12.482 12.19-12.501 19.861.014 4.807 1.396 8.86 4.177 12.326 2.824 3.498 6.753 6.529 11.803 9.084a81.825 81.825 0 0 0 15.355 6.046c5.225 1.481 13.894 3.622 25.944 6.457 15.112 3.257 28.819 6.896 41.136 10.862 12.293 3.986 22.784 8.793 31.451 14.52 8.736 5.71 15.564 12.99 20.438 21.783 4.909 8.807 7.354 19.564 7.354 32.222.019 15.242-4.227 28.95-12.689 41.084z"/>
</symbol><symbol id="ico-telegram" viewBox="0 0 300 300">
    <path d="M5.299 144.645l69.126 25.8 26.756 86.047c1.712 5.511 8.451 7.548 12.924 3.891l38.532-31.412a11.496 11.496 0 0 1 14.013-.391l69.498 50.457c4.785 3.478 11.564.856 12.764-4.926L299.823 29.22c1.31-6.316-4.896-11.585-10.91-9.259L5.218 129.402c-7.001 2.7-6.94 12.612.081 15.243zm91.57 12.066l135.098-83.207c2.428-1.491 4.926 1.792 2.841 3.726L123.313 180.87a23.112 23.112 0 0 0-7.163 13.829l-3.798 28.146c-.503 3.758-5.782 4.131-6.819.494l-14.607-51.325c-1.673-5.854.765-12.107 5.943-15.303z"/>
</symbol><symbol id="ico-viber" viewBox="0 0 322 322">
    <path d="M275.445 135.123c.387-45.398-38.279-87.016-86.192-92.771-.953-.113-1.991-.285-3.09-.467-2.372-.393-4.825-.797-7.3-.797-9.82 0-12.445 6.898-13.136 11.012-.672 4-.031 7.359 1.902 9.988 3.252 4.422 8.974 5.207 13.57 5.836 1.347.186 2.618.359 3.682.598 43.048 9.619 57.543 24.742 64.627 67.424.173 1.043.251 2.328.334 3.691.309 5.102.953 15.717 12.365 15.717h.001c.95 0 1.971-.082 3.034-.244 10.627-1.615 10.294-11.318 10.134-15.98-.045-1.313-.088-2.555.023-3.381.03-.208.045-.417.046-.626z"/>
    <path d="M176.077 25.688c1.275.092 2.482.18 3.487.334 70.689 10.871 103.198 44.363 112.207 115.605.153 1.211.177 2.688.202 4.252.09 5.566.275 17.145 12.71 17.385l.386.004c3.9 0 7.002-1.176 9.221-3.498 3.871-4.049 3.601-10.064 3.383-14.898-.053-1.186-.104-2.303-.091-3.281.899-72.862-62.171-138.933-134.968-141.39-.302-.01-.59.006-.881.047a6.09 6.09 0 0 1-.862.047c-.726 0-1.619-.063-2.566-.127C177.16.09 175.862 0 174.546 0c-11.593 0-13.797 8.24-14.079 13.152-.65 11.352 10.332 12.151 15.61 12.536z"/>
    <path d="M288.36 233.703a224.924 224.924 0 0 1-4.512-3.508c-7.718-6.211-15.929-11.936-23.87-17.473a1800.92 1800.92 0 0 1-4.938-3.449c-10.172-7.145-19.317-10.617-27.957-10.617-11.637 0-21.783 6.43-30.157 19.109-3.71 5.621-8.211 8.354-13.758 8.354-3.28 0-7.007-.936-11.076-2.783-32.833-14.889-56.278-37.717-69.685-67.85-6.481-14.564-4.38-24.084 7.026-31.832 6.477-4.396 18.533-12.58 17.679-28.252-.967-17.797-40.235-71.346-56.78-77.428-7.005-2.576-14.365-2.6-21.915-.06-19.02 6.394-32.669 17.623-39.475 32.471-6.577 14.347-6.28 31.193.859 48.717 20.638 50.666 49.654 94.84 86.245 131.293 35.816 35.684 79.837 64.914 130.839 86.875 4.597 1.978 9.419 3.057 12.94 3.844 1.2.27 2.236.5 2.991.707.415.113.843.174 1.272.178l.403.002h.002c23.988 0 52.791-21.92 61.637-46.91 7.75-21.882-6.4-32.698-17.77-41.388z"/>
    <path d="M186.687 83.564c-4.107.104-12.654.316-15.653 9.021-1.403 4.068-1.235 7.6.5 10.498 2.546 4.252 7.424 5.555 11.861 6.27 16.091 2.582 24.355 11.48 26.008 28 .768 7.703 5.955 13.082 12.615 13.082h.001c.492 0 .995-.029 1.496-.09 8.01-.953 11.893-6.838 11.542-17.49.128-11.117-5.69-23.738-15.585-33.791-9.929-10.084-21.898-15.763-32.785-15.5z"/>
</symbol></svg>